<?xml version="1.0" encoding="UTF-8"?><svg xmlns="http://www.w3.org/2000/svg" viewBox="0 0 512 512"><g id="a"><rect width="512" height="512" style="fill:#070707;"/><text transform="translate(264.61 -.03) scale(1.16 1)" style="fill:#009245; font-family:MyriadPro-Regular, Myriad Pro; font-size:7.88px; glyph-orientation-vertical:0deg; text-orientation:upright; writing-mode:tb;"><tspan x="0" y="0">01001100011011110110011101101001011000110110000101101100</tspan><tspan x="-8.17" y="0">0101001001100101011001000111001101110100011011110110111001100101</tspan><tspan x="-16.34" y="0">010010000110010101101100011100000110010101110010</tspan><tspan x="-24.51" y="0">0010100001001100010100100100100000101001</tspan><tspan x="-32.68" y="0">01001100011011110110011101101001011000110110000101101100</tspan><tspan x="-40.84" y="0">0101001001100101011001000111001101110100011011110110111001100101</tspan><tspan x="-49.01" y="0">010010000110010101101100011100000110010101110010</tspan><tspan x="-57.18" y="0">0010100001001100010100100100100000101001</tspan><tspan x="-65.35" y="0">01001100011011110110011101101001011000110110000101101100</tspan><tspan x="-73.52" y="0">0101001001100101011001000111001101110100011011110110111001100101</tspan><tspan x="-81.69" y="0">010010000110010101101100011100000110010101110010</tspan><tspan x="-89.86" y="0">0010100001001100010100100100100000101001</tspan><tspan x="-98.03" y="0">01001100011011110110011101101001011000110110000101101100</tspan><tspan x="-106.2" y="0">0101001001100101011001000111001101110100011011110110111001100101</tspan><tspan x="-114.36" y="0">010010000110010101101100011100000110010101110010</tspan><tspan x="-122.53" y="0">0010100001001100010100100100100000101001</tspan><tspan x="-130.7" y="0">01001100011011110110011101101001011000110110000101101100</tspan><tspan x="-138.87" y="0">0101001001100101011001000111001101110100011011110110111001100101</tspan><tspan x="-147.04" y="0">010010000110010101101100011100000110010101110010</tspan><tspan x="-155.21" y="0">0010100001001100010100100100100000101001</tspan><tspan x="-163.38" y="0">01001100011011110110011101101001011000110110000101101100</tspan><tspan x="-171.55" y="0">0101001001100101011001000111001101110100011011110110111001100101</tspan><tspan x="-179.71" y="0">010010000110010101101100011100000110010101110010</tspan><tspan x="-187.88" y="0">0010100001001100010100100100100000101001</tspan><tspan x="-196.05" y="0">01001100011011110110011101101001011000110110000101101100</tspan><tspan x="-204.22" y="0">0101001001100101011001000111001101110100011011110110111001100101</tspan><tspan x="-212.39" y="0">010010000110010101101100011100000110010101110010</tspan><tspan x="-220.56" y="0">0010100001001100010100100100100000101001</tspan><tspan x="-228.73" y="0">01001100011011110110011101101001011000110110000101101100</tspan><tspan x="-236.9" y="0">0101001001100101011001000111001101110100011011110110111001100101</tspan><tspan x="-245.07" y="0">010010000110010101101100011100000110010101110010</tspan><tspan x="-253.23" y="0">0010100001001100010100100100100000101001</tspan></text><text transform="translate(566.48 -.12) scale(1.16 1)" style="fill:#009245; font-family:MyriadPro-Regular, Myriad Pro; font-size:7.88px; glyph-orientation-vertical:0deg; text-orientation:upright; writing-mode:tb;"><tspan x="0" y="0">01001100011011110110011101101001011000110110000101101100</tspan><tspan x="-8.17" y="0">0101001001100101011001000111001101110100011011110110111001100101</tspan><tspan x="-16.34" y="0">010010000110010101101100011100000110010101110010</tspan><tspan x="-24.51" y="0">0010100001001100010100100100100000101001</tspan><tspan x="-32.68" y="0">01001100011011110110011101101001011000110110000101101100</tspan><tspan x="-40.84" y="0">0101001001100101011001000111001101110100011011110110111001100101</tspan><tspan x="-49.01" y="0">010010000110010101101100011100000110010101110010</tspan><tspan x="-57.18" y="0">0010100001001100010100100100100000101001</tspan><tspan x="-65.35" y="0">01001100011011110110011101101001011000110110000101101100</tspan><tspan x="-73.52" y="0">0101001001100101011001000111001101110100011011110110111001100101</tspan><tspan x="-81.69" y="0">010010000110010101101100011100000110010101110010</tspan><tspan x="-89.86" y="0">0010100001001100010100100100100000101001</tspan><tspan x="-98.03" y="0">01001100011011110110011101101001011000110110000101101100</tspan><tspan x="-106.2" y="0">0101001001100101011001000111001101110100011011110110111001100101</tspan><tspan x="-114.36" y="0">010010000110010101101100011100000110010101110010</tspan><tspan x="-122.53" y="0">0010100001001100010100100100100000101001</tspan><tspan x="-130.7" y="0">01001100011011110110011101101001011000110110000101101100</tspan><tspan x="-138.87" y="0">0101001001100101011001000111001101110100011011110110111001100101</tspan><tspan x="-147.04" y="0">010010000110010101101100011100000110010101110010</tspan><tspan x="-155.21" y="0">0010100001001100010100100100100000101001</tspan><tspan x="-163.38" y="0">01001100011011110110011101101001011000110110000101101100</tspan><tspan x="-171.55" y="0">0101001001100101011001000111001101110100011011110110111001100101</tspan><tspan x="-179.71" y="0">010010000110010101101100011100000110010101110010</tspan><tspan x="-187.88" y="0">0010100001001100010100100100100000101001</tspan><tspan x="-196.05" y="0">01001100011011110110011101101001011000110110000101101100</tspan><tspan x="-204.22" y="0">0101001001100101011001000111001101110100011011110110111001100101</tspan><tspan x="-212.39" y="0">010010000110010101101100011100000110010101110010</tspan><tspan x="-220.56" y="0">0010100001001100010100100100100000101001</tspan><tspan x="-228.73" y="0">01001100011011110110011101101001011000110110000101101100</tspan><tspan x="-236.9" y="0">0101001001100101011001000111001101110100011011110110111001100101</tspan><tspan x="-245.07" y="0">010010000110010101101100011100000110010101110010</tspan><tspan x="-253.23" y="0">0010100001001100010100100100100000101001</tspan></text></g><g id="b"><g><path d="M327.8,417.32v34.06c-14.81,2.6-92.79,3.3-143.6,1.23v-35.29h143.6Z"/><path d="M435.5,237.81h34.05c.43,.41,.94,.76,1.26,1.24,.3,.44,.57,1.02,.57,1.54,.03,34.57,.02,69.13,.02,104.92h-35.9v-107.7Z"/><path d="M220.1,94.21V58.96c23.49-1.43,47.05-.22,71.8-.77v36.03h-71.8Z" style="fill:#003700;"/><path d="M40.6,309.62v-71.8h35.9v71.8H40.6Z" style="fill:#003700;"/><path d="M184.2,417.32H112.4v-35.9h71.8v35.9Z"/><path d="M399.6,381.42v35.9h-71.8v-35.9h71.8Z"/><path d="M327.8,130.11h35.9v35.9h-35.9v-35.9Z"/><path d="M112.4,201.91v-35.9h35.9v35.9h-35.9Z" style="fill:#003700;"/><path d="M363.7,166.01h35.9v35.9h-35.9v-35.9Z"/><path d="M76.5,237.81v-35.9h35.9v35.9h-35.9Z" style="fill:#003700;"/><path d="M399.6,201.91h35.9v35.9h-35.9v-35.9Z"/><path d="M184.2,130.11v-35.9h35.9v35.9h-35.9Z" style="fill:#003700;"/><path d="M40.6,309.62h35.9v35.9H40.6v-35.9Z"/><path d="M291.9,94.21h35.9v35.9h-35.9v-35.9Z" style="fill:#003700;"/><path d="M112.4,381.42h-35.9v-35.9h35.9v35.9Z"/><path d="M435.5,345.52v35.9h-35.9v-35.9h35.9Z"/><path d="M148.3,166.01v-35.9h35.9v35.9h-35.9Z" style="fill:#003700;"/><path d="M291.9,417.32h-71.8v-71.8h35.9v35.9h35.9v35.9Z" style="fill:#0e2200;"/><path d="M220.1,381.42v35.9h-35.9v-35.9h35.9Z" style="fill:#002303;"/><path d="M291.9,417.32v-35.9h35.9v35.9h-35.9Z" style="fill:#002303;"/><path d="M399.6,237.81h35.9v35.9h-35.9v-35.9Z" style="fill:#002303;"/><path d="M399.6,273.71h35.9v35.9h-35.9v-35.9Z" style="fill:#0e2200;"/><path d="M399.6,309.62h35.9v35.9h-35.9v-35.9Z" style="fill:#002303;"/><path d="M291.9,94.21v71.8h-35.9V94.21h35.9Z" style="fill:#006800;"/><path d="M256,94.21v35.9h-35.9v-35.9h35.9Z" style="fill:#040;"/><path d="M76.5,237.81h35.9v35.9h-35.9v-35.9Z" style="fill:#040;"/><path d="M76.5,273.71h35.9v35.9h-35.9v-35.9Z" style="fill:#006800;"/><path d="M112.4,381.42v-35.9h35.9v35.9h-35.9Z" style="fill:#0e2200;"/><path d="M148.3,381.42v-35.9h35.9v35.9h-35.9Z" style="fill:#006800;"/><path d="M399.6,309.62v35.9h-35.9v35.9h-71.8v-35.9h35.9c0-7.07,.08-12.96-.02-18.84-.1-5.72-.39-11.44-.59-17.06h-35.29v-35.9h35.9v-35.9h35.9v71.8h35.9Z" style="fill:#0e2200;"/><path d="M363.7,381.42v-35.9h35.9v35.9h-35.9Z" style="fill:#002303;"/><path d="M291.9,166.01v-35.9h35.9v35.9h-35.9Z" style="fill:#0e2200;"/><path d="M363.7,166.01v35.9h-35.9v-35.9h35.9Z" style="fill:#0e2200;"/><path d="M148.3,166.01h35.9v35.9h35.9v35.9h-35.9v71.8h-35.9v-71.8h-35.9v-35.9h35.9v-35.9Z" style="fill:#006800;"/><path d="M399.6,201.91v35.9h-35.9v-35.9h35.9Z" style="fill:#0e2200;"/><path d="M184.2,166.01v-35.9h35.9v35.9h-35.9Z" style="fill:#006800;"/><path d="M76.5,309.62h35.9v35.9h-35.9v-35.9Z" style="fill:#0e2200;"/><path d="M184.2,381.42v-35.9h35.9v35.9h-35.9Z" style="fill:#040;"/><path d="M291.9,345.52v35.9h-35.9v-35.9h35.9Z" style="fill:#003700;"/><path d="M256,345.52h-35.9v-35.9h35.9v35.9Z" style="fill:#040;"/><path d="M363.7,237.81h35.9v35.9h-35.9v-35.9Z" style="fill:#006800;"/><path d="M363.7,273.71h35.9v35.9h-35.9v-35.9Z" style="fill:#003700;"/><path d="M256,166.01h35.9v35.9h-35.9v-35.9Z" style="fill:#040;"/><path d="M220.1,166.01v-35.9h35.9v35.9h-35.9Z" style="fill:#009d00;"/><path d="M112.4,237.81h35.9v35.9h-35.9v-35.9Z" style="fill:#009d00;"/><path d="M112.4,273.71h35.9v35.9h-35.9v-35.9Z" style="fill:#040;"/><path d="M112.4,309.62h35.9v35.9h-35.9v-35.9Z" style="fill:#006800;"/><path d="M148.3,345.52v-35.9h35.9v35.9h-35.9Z" style="fill:#009d00;"/><path d="M363.7,201.91v35.9h-35.9v-35.9h35.9Z" style="fill:#003700;"/><path d="M291.9,273.71v35.9h-35.9v-35.9h35.9Z" style="fill:#040;"/><path d="M291.9,309.62h35.29c.2,5.61,.49,11.33,.59,17.06,.1,5.88,.02,11.77,.02,18.84h-35.9v-35.9Z" style="fill:#006800;"/><path d="M327.8,237.81v35.9h-35.9v-35.9h35.9Z" style="fill:#040;"/><path d="M291.9,201.91v-35.9h35.9v35.9h-35.9Z" style="fill:#009d00;"/><path d="M184.2,166.01h35.9v35.9h-35.9v-35.9Z" style="fill:#009d00;"/><path d="M220.1,237.81v-35.9h35.9v35.9h-35.9Z" style="fill:#009d00;"/><path d="M184.2,273.71v-35.9h35.9v35.9h-35.9Z" style="fill:#040;"/><path d="M184.2,273.71h35.9v35.9h-35.9v-35.9Z" style="fill:#009d00;"/><path d="M184.2,309.62h35.9v35.9h-35.9v-35.9Z" style="fill:#006800;"/><path d="M291.9,309.62v35.9h-35.9v-35.9h35.9Z" style="fill:#0e2200;"/><path d="M220.1,309.62v-35.9h35.9v35.9h-35.9Z" style="fill:#006800;"/><path d="M256,201.91h-35.9v-35.9h35.9v35.9Z" style="fill:#006800;"/><path d="M256,237.81v-35.9h35.9v35.9h-35.9Z" style="fill:#006800;"/><path d="M291.9,237.81v-35.9h35.9v35.9h-35.9Z" style="fill:#0e2200;"/><path d="M256,237.81h35.9v35.9h-35.9v-35.9Z" style="fill:#009d00;"/><path d="M256,237.81v35.9h-35.9v-35.9h35.9Z" style="fill:#0e2200;"/></g></g></svg>